<svg width="260" height="341" viewBox="0 0 260 341" fill="none" xmlns="http://www.w3.org/2000/svg">
<rect width="260" height="341" fill="#F5F5F5"/>
<path id="Vector" d="M22.9301 258.814L52.743 321.182L49.0458 322.95C47.7976 323.546 46.3642 323.623 45.0604 323.162C43.7565 322.702 42.6886 321.742 42.0927 320.495L16.7762 267.535C16.1803 266.288 16.1037 264.854 16.5639 263.55C17.0247 262.246 17.9847 261.179 19.2322 260.582L22.9301 258.814Z" fill="#3A4279"/>
<path id="Vector_2" d="M55.3886 244.73L34.8135 253.236L46.3562 269.559L64.5964 263.993L55.3886 244.73Z" fill="#FFCCB3"/>
<g id="Group 7">
<path id="Vector_3" d="M42.2462 253.887C42.2462 253.887 50.279 266.295 51.4909 273.227C52.7022 280.16 56.8526 315.227 55.736 318.388C54.9333 320.66 52.0179 321.635 50.1683 321.842C49.7624 321.885 49.3531 321.801 48.9974 321.601C48.6416 321.401 48.3562 321.095 48.1822 320.726L21.1197 264.113C20.6672 263.168 20.6039 262.084 20.9422 261.093C21.2812 260.102 21.9948 259.284 22.9311 258.814C26.6749 256.933 32.4021 254.114 34.8135 253.236C38.5406 251.88 41.0008 251.888 42.2462 253.887Z" fill="#6392E8"/>
</g>
<path id="Vector_4" d="M187.896 283.568L159.936 335.181C159.278 336.397 158.163 337.301 156.838 337.695C155.512 338.089 154.084 337.94 152.869 337.282L149.265 335.33L182.191 274.548L185.795 276.501C187.011 277.159 187.916 278.274 188.31 279.599C188.704 280.924 188.556 282.352 187.896 283.568Z" fill="#3A4279"/>
<path id="Vector_5" d="M150.488 258.843L170.607 268.377L158.254 284.096L140.318 277.616L150.488 258.843Z" fill="#FFCCB3"/>
<g id="Group 8">
<g id="Group 6">
<path id="Vector_6" d="M163.15 268.652C163.15 268.652 154.5 280.637 152.94 287.499C151.38 294.362 145.463 329.174 146.418 332.388C147.105 334.698 149.967 335.819 151.804 336.118C152.207 336.182 152.62 336.119 152.986 335.937C153.351 335.756 153.651 335.465 153.844 335.105L183.733 279.931C184.232 279.011 184.351 277.931 184.063 276.925C183.774 275.917 183.103 275.064 182.192 274.547C178.548 272.48 172.97 269.375 170.606 268.377C166.952 266.834 164.495 266.717 163.15 268.652Z" fill="#6392E8"/>
</g>
</g>
<path id="Vector_7" d="M211.099 185.321C211.099 185.321 218.801 223.569 212.824 231.063L60.5191 270.062L47.5312 245.734L136.47 205.376L154.282 180.962L211.099 185.321Z" fill="#5E5D9A"/>
<g id="Group 9">
<g id="Group 4">
<path id="Vector_8" d="M99.8226 183.09C99.8226 183.09 56.7559 180.754 35.4095 182.63C21.6642 183.838 16.7091 219.012 27.6781 225.411L145.4 285.687L159.272 260.619L83.3311 209.215L137.661 201.573L99.8226 183.09Z" fill="#5E5D9A"/>
</g>
</g>

<g id="Group 5">
<path id="Vector_10" d="M208.998 231.379C221.717 231.379 232.028 221.069 232.028 208.349C232.028 195.631 221.717 185.32 208.998 185.32C196.279 185.32 185.969 195.631 185.969 208.349C185.969 221.069 196.279 231.379 208.998 231.379Z" fill="#5E5D9A"/>
</g>
<path id="Vector_11" d="M157.342 111.706C165.635 108.928 170.106 99.9532 167.329 91.6601C164.551 83.367 155.576 78.8957 147.283 81.6733C138.99 84.4509 134.518 93.4262 137.296 101.719C140.074 110.012 149.049 114.484 157.342 111.706Z" fill="#6392E8"/>
<path id="Vector_12" d="M155.933 124.545C155.517 122.042 154.686 117.035 153.792 112.472L149.037 90.3867C149.037 90.3867 161.806 109.259 167.689 122.404C172.046 132.255 177.1 142.295 177.936 150.789L167.903 138.822L157.172 126.033L155.933 124.545Z" fill="#3A4279"/>
<path id="Vector_16" d="M238.009 72.7293C237.972 68.2809 235.303 62.897 235.303 62.897L238.009 72.7293Z" fill="#E56441"/>
<g id="Group 13">
<g id="hand">
<path id="sholder" d="M145.913 99.6787C143.487 87.7009 149.193 88.01 151.092 86.1054C151.092 86.1054 158.215 80.2313 163.643 85.7071C169.388 91.499 202.322 136.491 202.322 136.491L181.715 155.443L177.842 150.821L167.808 138.855L157.077 126.065L155.744 124.609L141.267 108.211C141.267 108.211 147.285 105.984 145.913 99.6787Z" fill="#6392E8"/>
<path id="Vector_18" d="M222.904 85.8368C227.801 76.906 225.448 75.3898 227.531 70.308C229.583 65.3494 225.939 53.0583 229.428 54.734C232.916 56.4103 233.995 60.8642 233.995 60.8642C236.381 56.6442 238.578 48.8794 244.288 47.9904C250 47.1015 250.506 48.8989 253.743 51.5554C262.355 58.7207 251.373 69.4893 249.54 73.5903C248.361 76.1604 239.696 83.9969 238.736 85.7101L234.375 92.0359L222.904 85.8368Z" fill="#FFCCB3"/>
<path id="Vector_19" d="M239.729 61.417L246.689 48.5684" stroke="#E56441" stroke-width="0.94666" stroke-linecap="round"/>
<path id="Vector_20" d="M244.289 63.4987L251.874 51.5327" stroke="#E56441" stroke-width="0.94666" stroke-linecap="round"/>
<path id="Vector_21" d="M249.708 65.7991L254.043 58.5522" stroke="#E56441" stroke-width="0.94666" stroke-linecap="round"/>
<path id="Vector_22" d="M238.009 72.7293C237.972 68.2809 235.303 62.897 235.303 62.897" stroke="#E56441" stroke-width="0.94666" stroke-linecap="round"/>
<path id="hand_2" d="M181.542 136.132L223.445 80.3291C223.711 80.0012 224.091 79.784 224.508 79.7193C224.926 79.6539 225.354 79.7458 225.707 79.9776L236.68 87.2334C237.201 87.5871 237.572 88.1217 237.722 88.7329C237.872 89.3448 237.788 89.9908 237.488 90.5443L203.791 152.688L181.542 136.132Z" fill="#6392E8"/>
</g>
</g>
<path id="Vector_24" d="M191.722 159.701C199.472 159.701 205.754 153.419 205.754 145.669C205.754 137.92 199.472 131.637 191.722 131.637C183.972 131.637 177.689 137.92 177.689 145.669C177.689 153.419 183.972 159.701 191.722 159.701Z" fill="#6392E8"/>
<g id="Group 14">
<g id="Group 12">
<path id="Vector_25" d="M129.496 73.77C129.496 73.77 153.01 79.9928 157.047 81.6079C161.084 83.2222 161.352 89.681 161.622 94.256C161.89 98.8304 160.987 201.573 160.987 201.573L108.946 199.572L70.0278 176.79C70.0278 176.79 71.7194 95.2682 72.2583 91.5007C72.7964 87.7332 68.5673 84.4885 73.1514 82.5922L102.619 74.808L129.496 73.77Z" fill="#6392E8"/>
</g>
</g>
<path id="Vector_26" d="M90.3373 110.371L90.7563 186.281L68.3838 161.345L79.2081 108.009L90.3373 110.371Z" fill="#3A4279"/>
<path id="Vector_27" d="M98.7832 75.9679C98.7832 75.9679 95.4543 82.6634 98.7832 87.2816C102.112 91.8998 115.439 96.3857 124.544 96.2541C133.648 96.1219 138.472 87.4417 134.345 75.2885L119.266 71.0518L102.621 74.8081L98.7832 75.9679Z" fill="#3A4279"/>
<path id="Vector_28" d="M136.472 18.2686C136.472 18.2686 143.029 32.4162 136.036 35.3386C129.043 38.261 129.858 18.9549 136.472 18.2686Z" fill="#93523E"/>
<path id="Vector_29" d="M129.076 63.5408L130.973 84.929C130.973 84.929 132.792 87.7964 125.71 89.3021C121.154 90.2711 108.886 85.4378 106.507 83.9878C105.495 83.4504 104.702 82.5767 104.265 81.5179C103.827 80.4591 103.772 79.2805 104.111 78.1862C104.834 75.568 107.831 53.7642 107.831 53.7642L129.076 63.5408Z" fill="#FFCCB3"/>
<path id="Vector_30" d="M129.442 67.6639L118.143 62.0815L130.74 82.2919L129.442 67.6639Z" fill="#FF967C"/>
<g id="Group 15">
<path id="Vector_31" d="M132.708 22.3631C132.708 22.3631 139.339 38.9939 141.744 50.6612C144.171 62.4316 140.299 65.3714 135.189 67.1027C131.16 68.4678 124.725 69.5566 120.347 68.1866C112.365 65.6874 104.556 58.4747 102.688 56.9933C99.7963 54.6995 96.9407 44.295 101.179 38.4085C105.418 32.5226 122.118 14.0248 132.708 22.3631Z" fill="#FFCCB3"/>
</g>
<path id="eye" d="M124.17 45.3188C125.052 44.9721 125.337 43.5993 124.807 42.2537C124.278 40.9074 123.134 40.0978 122.252 40.4444C121.37 40.7911 121.084 42.1639 121.613 43.5102C122.143 44.8559 123.288 45.6662 124.17 45.3188Z" fill="#080B09"/>
<path id="eye_2" d="M136.291 40.4621C137.173 40.1154 137.458 38.7427 136.928 37.3963C136.399 36.0507 135.255 35.2404 134.373 35.5877C133.491 35.9344 133.205 37.3072 133.735 38.6529C134.264 39.9992 135.409 40.8088 136.291 40.4621Z" fill="#080B09"/>
<path id="Vector_32" d="M131.845 42.7588C131.845 42.7588 130.768 46.0181 133.032 45.7007C135.184 45.3227 136.643 46.3857 134.764 48.5695" fill="#E56441"/>
<path id="Vector_33" d="M131.845 42.7588C131.845 42.7588 130.768 46.0181 133.032 45.7007C135.184 45.3227 136.643 46.3857 134.764 48.5695" stroke="#E56441" stroke-width="0.94666" stroke-linecap="round"/>
<path id="Vector_34" d="M134.869 51.4505L134.88 51.4478L134.891 51.4443C134.922 51.4352 134.956 51.4338 134.987 51.4415C135.019 51.4492 135.048 51.4652 135.072 51.4881C135.096 51.5104 135.113 51.5397 135.122 51.571C135.131 51.6023 135.131 51.6357 135.123 51.6677L135.116 51.6949L135.113 51.7227C134.975 53.1491 134.62 53.9963 134.189 54.4732C133.772 54.9333 133.25 55.0865 132.658 55.0412C132.05 54.9953 131.383 54.7391 130.736 54.3876C130.097 54.0402 129.503 53.6134 129.044 53.2473C129.013 53.218 128.99 53.1811 128.977 53.1408C128.963 53.0976 128.962 53.0517 128.973 53.0085C128.984 52.9646 129.007 52.925 129.038 52.8929C129.07 52.8616 129.11 52.8393 129.154 52.8289L129.157 52.8275C130.907 52.3848 133.547 51.7624 134.869 51.4505Z" fill="#E56441" stroke="#E56441"/>
<path id="eye-brow" d="M116.491 39.62L116.657 39.8525C116.869 40.2124 117.215 40.4742 117.62 40.58C118.023 40.6858 118.453 40.628 118.815 40.4178L124.931 36.6496C125.235 36.479 125.464 36.2013 125.572 35.8706C125.68 35.5399 125.661 35.18 125.517 34.8633C125.437 34.6656 125.318 34.486 125.164 34.3377C125.011 34.1894 124.827 34.0753 124.626 34.0029C124.426 33.9312 124.211 33.9019 123.999 33.9186C123.786 33.9353 123.579 33.9966 123.392 34.0989L117.109 37.6353C116.936 37.7223 116.782 37.8435 116.656 37.9917C116.531 38.1393 116.436 38.3113 116.378 38.4965C116.321 38.6816 116.301 38.8765 116.321 39.0701C116.339 39.2629 116.398 39.4502 116.491 39.62Z" fill="#080B09"/>
<path id="eye-brow_2" d="M135.529 30.014L128.35 30.6796C128.138 30.7018 127.933 30.7687 127.748 30.8766C127.564 30.9838 127.404 31.1293 127.28 31.3026C127.157 31.4759 127.071 31.6743 127.029 31.8832C126.987 32.0927 126.99 32.3085 127.038 32.5167C127.099 32.8592 127.287 33.1662 127.564 33.3764C127.842 33.5866 128.188 33.6855 128.535 33.6528L135.709 33.2727C136.126 33.2399 136.513 33.0429 136.785 32.7262C137.057 32.4094 137.193 31.9973 137.162 31.5803L137.167 31.2949C137.147 31.1021 137.088 30.9148 136.994 30.745C136.9 30.5751 136.772 30.4262 136.62 30.3071C136.467 30.1874 136.291 30.0997 136.104 30.0496C135.917 29.9994 135.721 29.9869 135.529 30.014Z" fill="#080B09"/>
<g id="Group 16">
<g id="Group 1">
<path id="Vector_35" d="M124.475 25.6813C124.475 25.6813 120.892 32.4993 114.392 34.5216C107.891 36.5432 111.444 46.8029 111.444 46.8029C111.444 46.8029 106.986 42.3692 101.862 44.8648C96.7384 47.3612 100.628 57.1566 107.707 57.2819L105.781 68.3046C105.781 68.3046 102.196 63.8395 98.4258 61.4504C94.6548 59.0619 81.1093 49.7879 87.0934 37.5749C87.0934 37.5749 82.4118 20.4248 95.2514 11.5337C108.091 2.64185 119.204 5.99724 119.204 5.99724C119.204 5.99724 122.265 1.14165 129.36 2.13365C136.455 3.12565 138.091 15.9193 135.742 20.5466C133.392 25.1738 129.563 27.1404 124.475 25.6813Z" fill="#93523E"/>
</g>
</g>
<path id="Vector_36" d="M70.9838 94.0382C80.0127 85.8028 82.6789 90.8561 85.2888 91.507C85.2888 91.507 93.9877 94.6 92.0789 102.07C90.0615 109.975 68.3823 161.345 68.3823 161.345L41.5356 153.404L43.5113 147.706L48.6223 132.95L54.0815 117.172L54.6454 115.28L61.2754 94.435C61.2754 94.435 66.2786 98.4545 70.9838 94.0382Z" fill="#6392E8"/>
<path id="Vector_37" d="M88.8654 108.29C94.5535 101.646 93.778 91.6484 87.1341 85.9609C80.4901 80.2727 70.4928 81.0482 64.8054 87.6922C59.1172 94.3362 59.892 104.333 66.5367 110.021C73.1806 115.709 83.1772 114.934 88.8654 108.29Z" fill="#6392E8"/>
<path id="Vector_38" d="M54.9384 171.606C62.6885 171.606 68.9712 165.324 68.9712 157.574C68.9712 149.824 62.6885 143.542 54.9384 143.542C47.1889 143.542 40.9062 149.824 40.9062 157.574C40.9062 165.324 47.1889 171.606 54.9384 171.606Z" fill="#6392E8"/>
<g id="Group 11">
<path id="Vector_39" d="M136.028 139.319L108.978 214.26H54.5898C54.5898 211.972 55.499 209.777 57.1168 208.159C58.7354 206.541 60.9296 205.632 63.2178 205.632H102.566L125.923 139.319H136.028Z" fill="white"/>
</g>
<g id="Group 10">
<path id="Vector_40" d="M136.026 139.319H208.999L180.777 214.26H108.977L136.026 139.319Z" fill="url(#paint0_linear_0_1)"/>
</g>
<path id="Vector_41" d="M65.7255 148.728L115.568 197.569C115.858 197.876 116.024 198.28 116.034 198.703C116.043 199.126 115.896 199.537 115.621 199.858L106.992 209.787C106.574 210.257 105.995 210.556 105.369 210.624C104.743 210.692 104.113 210.525 103.604 210.155L46.4014 168.62L65.7255 148.728Z" fill="#6392E8"/>
<defs>
<linearGradient id="paint0_linear_0_1" x1="156.498" y1="139.141" x2="169.471" y2="298.846" gradientUnits="userSpaceOnUse">
<stop stop-color="white"/>
<stop offset="1" stop-color="#94B9FF"/>
</linearGradient>
</defs>
</svg>
